<?xml version="1.0" standalone="no"?>
<!DOCTYPE svg PUBLIC "-//W3C//DTD SVG 20010904//EN"
 "http://www.w3.org/TR/2001/REC-SVG-20010904/DTD/svg10.dtd">
<svg version="1.0" xmlns="http://www.w3.org/2000/svg"
 width="3125.000000pt" height="680.000000pt" viewBox="0 0 3125.000000 680.000000"
 preserveAspectRatio="xMidYMid meet">
<metadata>
Created by potrace 1.16, written by Peter Selinger 2001-2019
</metadata>
<g transform="translate(0.000000,680.000000) scale(0.100000,-0.100000)"
fill="#000000" stroke="none">
<path d="M3035 6785 c-481 -58 -931 -205 -1330 -435 -335 -192 -633 -434 -866
-705 -359 -418 -608 -896 -739 -1420 -18 -71 -34 -137 -37 -145 -3 -8 -7 -26
-8 -40 -2 -14 -10 -68 -18 -120 -32 -197 -40 -328 -34 -598 5 -276 19 -402 67
-627 50 -230 141 -508 231 -702 21 -46 35 -83 33 -83 -3 0 2 -7 10 -16 9 -8
14 -19 11 -24 -3 -5 -1 -10 3 -12 4 -1 30 -43 56 -93 27 -49 76 -133 109 -185
32 -52 64 -104 71 -115 6 -10 16 -24 21 -30 6 -7 37 -49 70 -94 33 -45 69 -92
80 -105 11 -13 38 -44 60 -71 64 -77 296 -305 376 -371 500 -409 1054 -659
1698 -766 180 -29 696 -37 892 -14 989 120 1876 654 2418 1456 491 725 689
1586 561 2431 -140 920 -649 1750 -1393 2272 -448 315 -938 510 -1502 599
-168 26 -668 34 -840 13z m657 -390 c165 -17 269 -34 284 -46 6 -5 13 -6 16
-3 13 12 481 -123 498 -145 3 -3 14 -8 25 -9 11 -2 22 -7 25 -10 3 -4 12 -8
20 -10 31 -7 178 -77 285 -135 179 -98 375 -232 520 -356 79 -68 318 -315 373
-386 35 -44 70 -89 79 -100 34 -43 170 -254 193 -301 14 -27 28 -51 31 -54 23
-18 183 -376 174 -390 -3 -5 -1 -10 4 -12 5 -1 29 -67 54 -145 158 -492 183
-1026 70 -1533 -195 -881 -764 -1623 -1557 -2031 -451 -232 -889 -339 -1382
-339 -681 0 -1313 219 -1874 650 -123 95 -375 346 -479 478 -446 565 -680
1265 -658 1967 21 655 256 1290 669 1807 105 132 314 341 445 445 427 342 948
567 1483 642 80 12 165 22 190 24 123 9 390 5 512 -8z"/>
<path d="M3371 6253 c-15 -13 -60 -127 -151 -386 -72 -202 -130 -379 -130
-393 0 -17 18 -44 54 -82 75 -80 90 -113 91 -197 0 -90 -16 -123 -113 -223
-88 -91 -132 -160 -170 -264 -24 -67 -27 -90 -32 -269 l-5 -196 -620 358
c-341 197 -624 359 -630 359 -5 0 -45 -61 -87 -136 -67 -117 -76 -138 -64
-150 8 -8 18 -14 22 -14 11 0 949 -543 952 -552 2 -4 8 -8 14 -8 15 0 172 -91
176 -102 2 -4 9 -8 14 -8 6 0 60 -28 120 -62 l108 -63 0 -91 0 -92 -81 -46
c-45 -25 -85 -46 -89 -46 -3 0 -319 180 -701 401 -382 221 -699 403 -705 406
-10 4 -164 -254 -164 -273 1 -5 170 -106 376 -224 207 -118 382 -221 389 -227
8 -7 17 -13 21 -13 10 0 425 -239 442 -254 9 -9 -5 -22 -65 -55 -267 -150
-367 -255 -429 -452 -46 -147 -56 -170 -88 -207 -64 -73 -194 -104 -283 -67
-42 18 -71 19 -99 2 -39 -22 -534 -609 -534 -632 0 -40 32 -57 97 -53 33 3 63
7 69 10 8 5 83 19 129 23 11 1 27 5 35 8 17 6 243 48 280 52 14 1 32 5 40 8 8
3 53 12 99 21 97 18 128 35 136 74 26 126 65 186 148 226 74 36 132 36 253 0
73 -22 245 -25 324 -5 73 18 153 55 282 129 59 34 109 62 112 62 4 0 6 -324 6
-720 l0 -720 160 0 160 0 0 815 0 815 33 20 c17 11 55 32 82 46 l51 27 82 -47
82 -48 0 -814 0 -814 160 0 160 0 2 720 3 720 130 -75 c72 -41 157 -84 190
-95 141 -46 274 -49 417 -8 138 38 216 22 297 -61 45 -46 53 -63 81 -169 13
-50 40 -66 129 -78 28 -4 54 -11 57 -15 3 -5 9 -7 14 -4 8 5 110 -11 140 -22
8 -3 22 -6 30 -7 59 -5 131 -20 136 -27 3 -5 9 -7 14 -4 7 5 109 -11 140 -22
8 -3 24 -7 35 -8 11 -1 50 -6 87 -10 78 -9 98 1 98 47 0 24 -47 84 -261 334
-175 204 -269 306 -286 310 -14 4 -51 -1 -83 -11 -120 -36 -236 -2 -301 90
-15 22 -37 76 -49 120 -56 219 -166 353 -398 487 l-134 76 69 40 c37 22 316
182 618 357 303 174 553 320 557 324 6 5 -130 253 -151 274 -4 4 -323 -175
-709 -398 -386 -223 -705 -405 -709 -405 -5 0 -43 20 -86 45 l-78 46 3 95 3
95 697 402 c383 222 700 406 704 410 8 7 -144 277 -156 277 -5 0 -282 -158
-617 -351 -334 -193 -614 -354 -620 -356 -10 -4 -13 28 -13 140 0 282 -48 411
-216 588 -87 91 -107 131 -107 214 0 76 32 143 97 201 39 35 46 47 46 77 0 36
-242 744 -264 771 -19 24 -52 28 -75 9z m116 -1585 c18 -10 42 -36 55 -56 22
-36 23 -43 23 -296 l0 -259 -80 -48 -80 -47 -65 35 c-36 20 -73 41 -82 47 -16
10 -18 34 -18 269 0 277 2 287 53 335 55 51 129 59 194 20z m15 -1109 l89 -52
-3 -110 -3 -111 -92 -53 -92 -53 -95 56 -96 56 0 107 0 107 88 51 c48 28 93
52 101 52 7 1 54 -22 103 -50z m-666 -396 l84 -48 -3 -93 -2 -93 -225 -130
c-199 -114 -230 -129 -271 -129 -123 0 -199 138 -135 245 21 34 57 59 243 167
120 70 220 127 222 127 2 1 41 -20 87 -46z m1437 -79 c111 -65 212 -127 224
-139 78 -77 58 -207 -40 -256 -73 -38 -106 -28 -347 112 l-215 124 -3 96 -3
97 78 45 c43 25 84 43 91 41 7 -2 103 -56 215 -120z"/>
<path d="M7565 6333 c3 -14 262 -835 576 -1823 l569 -1796 0 -1142 0 -1142
580 0 580 0 0 1206 0 1207 595 1752 c327 963 595 1754 595 1758 0 4 -220 7
-489 7 l-489 0 -99 -292 c-55 -161 -230 -676 -389 -1145 -250 -738 -290 -848
-298 -823 -5 16 -163 530 -351 1142 l-341 1113 -523 3 -523 2 7 -27z"/>
<path d="M11780 6283 c-7 -43 -15 -82 -18 -87 -3 -5 -6 -23 -8 -40 -3 -39
-134 -756 -141 -776 -3 -8 -7 -28 -8 -45 -5 -42 -175 -977 -182 -995 -3 -8 -7
-29 -8 -45 -5 -46 -136 -758 -142 -775 -4 -8 -6 -18 -5 -22 2 -9 -28 -179 -35
-198 -3 -8 -7 -28 -8 -45 -5 -42 -135 -757 -142 -775 -3 -8 -7 -28 -8 -45 -5
-42 -175 -977 -182 -995 -3 -8 -7 -28 -8 -45 -5 -45 -136 -758 -142 -775 -4
-8 -6 -18 -5 -22 1 -4 -5 -42 -13 -85 -8 -43 -15 -79 -15 -80 0 -2 218 -3 485
-3 l485 0 5 22 c5 24 225 1344 225 1353 0 3 267 5 593 5 l593 0 108 -673 c59
-369 110 -680 113 -689 4 -17 38 -18 539 -18 l534 0 -5 23 c-5 19 -975 5895
-975 5904 0 2 -364 3 -809 3 l-808 0 -13 -77z m945 -2178 c113 -699 205 -1276
205 -1283 0 -9 -99 -12 -425 -12 -234 0 -425 2 -425 5 0 10 420 2531 427 2560
4 17 8 23 10 15 1 -8 95 -587 208 -1285z"/>
<path d="M14870 3395 l0 -2965 470 0 470 0 1 2188 1 2187 24 -105 c13 -58 25
-121 28 -140 2 -19 7 -43 11 -52 4 -10 5 -25 1 -33 -3 -8 -1 -15 5 -15 6 0 9
-8 8 -17 -1 -10 1 -25 4 -33 14 -37 78 -371 72 -380 -3 -5 -1 -10 5 -10 6 0
10 -8 9 -17 -1 -10 1 -25 4 -33 7 -19 78 -366 82 -400 1 -14 5 -32 8 -40 7
-20 99 -468 102 -500 1 -14 5 -32 8 -40 7 -20 79 -368 82 -400 1 -14 5 -32 8
-40 7 -20 99 -468 102 -500 1 -14 5 -32 8 -40 15 -39 77 -371 72 -380 -3 -6
-1 -10 5 -10 6 0 10 -8 9 -17 -1 -10 1 -25 4 -33 8 -21 79 -369 82 -401 1 -14
5 -30 8 -36 4 -6 8 -29 10 -50 2 -22 7 -45 11 -52 5 -8 126 -11 445 -11 l437
0 139 778 c76 427 232 1299 346 1937 l207 1160 1 -2232 1 -2233 550 0 550 0 0
2965 0 2965 -849 0 c-801 0 -850 -1 -855 -17 -2 -10 -59 -331 -126 -713 -67
-382 -124 -702 -127 -710 -3 -8 -7 -29 -9 -46 -4 -46 -45 -276 -51 -294 -3 -8
-7 -29 -9 -46 -5 -49 -45 -277 -51 -294 -4 -8 -6 -18 -5 -22 2 -7 -107 -631
-111 -634 -1 -1 -107 514 -236 1144 -129 631 -257 1256 -284 1390 l-50 242
-814 0 -813 0 0 -2965z"/>
<path d="M20780 6238 c-12 -68 -24 -130 -27 -138 -3 -8 -7 -28 -8 -45 -5 -43
-175 -977 -182 -995 -3 -8 -7 -29 -8 -45 -5 -43 -135 -757 -142 -775 -3 -8 -7
-28 -8 -45 -5 -43 -175 -977 -182 -995 -3 -8 -7 -29 -8 -45 -5 -43 -135 -757
-142 -775 -3 -8 -7 -28 -8 -45 -5 -42 -175 -977 -182 -995 -3 -8 -7 -28 -8
-45 -5 -42 -135 -757 -142 -775 -3 -8 -7 -32 -9 -52 l-4 -38 484 0 484 0 6 27
c3 16 53 314 111 663 58 349 108 647 111 663 l6 27 591 -2 592 -3 110 -685
111 -685 532 -3 c508 -2 532 -1 532 16 0 10 -218 1341 -485 2957 -267 1616
-485 2942 -485 2947 0 4 -364 8 -809 8 l-809 0 -22 -122z m955 -2143 c113
-698 205 -1273 205 -1277 0 -5 -191 -8 -425 -8 -280 0 -425 3 -425 10 0 20
421 2545 427 2560 8 20 -14 148 218 -1285z"/>
<path d="M23880 3395 l0 -2965 520 0 520 0 0 1300 0 1300 565 0 565 0 0 -1300
0 -1300 535 0 535 0 0 2965 0 2965 -535 0 -535 0 0 -1135 0 -1135 -565 0 -565
0 0 1135 0 1135 -520 0 -520 0 0 -2965z"/>
<path d="M28616 6098 c-26 -145 -50 -270 -53 -278 -3 -8 -7 -28 -8 -45 -5 -42
-175 -977 -182 -995 -3 -8 -7 -28 -8 -45 -5 -42 -135 -757 -142 -775 -3 -8 -7
-28 -8 -45 -5 -42 -175 -977 -182 -995 -3 -8 -7 -28 -8 -45 -5 -42 -135 -757
-142 -775 -3 -8 -7 -28 -8 -45 -5 -46 -176 -978 -182 -995 -4 -8 -6 -18 -5
-22 1 -6 -87 -501 -104 -580 l-6 -28 486 0 486 0 5 22 c5 24 225 1344 225
1353 0 3 267 5 593 5 l592 0 108 -673 c60 -369 111 -680 113 -689 5 -17 39
-18 535 -18 l529 0 0 21 c0 16 -904 5513 -961 5847 l-11 62 -807 0 -807 0 -48
-262z m979 -1996 c113 -699 205 -1277 205 -1282 0 -6 -150 -10 -425 -10 -234
0 -425 2 -425 5 0 10 420 2531 427 2560 4 17 8 23 10 15 1 -8 95 -588 208
-1288z"/>
</g>
</svg>
